<svg xmlns="http://www.w3.org/2000/svg" height="1056" width="816" xml:space="preserve"><defs><radialGradient id="a" spreadMethod="pad" gradientTransform="matrix(82 0 0 -82 284.082 566.53)" gradientUnits="userSpaceOnUse" r="1" cy="0" cx="0" fy="-.191" fx="-.982"><stop offset="0" style="stop-opacity:1;stop-color:#faed38"/><stop offset=".042" style="stop-opacity:1;stop-color:#faed38"/><stop offset=".603" style="stop-opacity:1;stop-color:#faed38"/><stop offset=".899" style="stop-opacity:1;stop-color:#f89736"/><stop offset="1" style="stop-opacity:1;stop-color:#f89736"/></radialGradient><clipPath id="b" clipPathUnits="userSpaceOnUse"><path d="M0 792h612V0H0Z"/></clipPath></defs><path style="fill:url(#a);stroke:none" d="M202.082 566.53c0-45.287 36.713-82 82-82s82 36.713 82 82-36.713 82-82 82-82-36.713-82-82" transform="matrix(1.33333 0 0 -1.33333 0 1056)"/><g clip-path="url(#b)" transform="matrix(1.33333 0 0 -1.33333 0 1056)"><path style="fill:none;stroke:#292929;stroke-width:.25;stroke-linecap:butt;stroke-linejoin:miter;stroke-miterlimit:10;stroke-dasharray:none;stroke-opacity:1" d="M0 0c0-45.287-36.713-82-82-82s-82 36.713-82 82 36.713 82 82 82S0 45.287 0 0Z" transform="translate(366.082 566.53)"/></g><text style="font-variant:normal;font-weight:400;font-stretch:normal;font-size:45.15380096px;font-family:'Franklin Gothic Heavy';-inkscape-font-specification:FranklinGothic-Heavy;writing-mode:lr-tb;fill:#373535;fill-opacity:1;fill-rule:nonzero;stroke:none" transform="matrix(.63217 0 0 1.33333 336.909 300.626)"><tspan y="0" x="0 30.885199 62.086475 93.28775">GOOD</tspan></text><text style="font-variant:normal;font-weight:400;font-stretch:normal;font-size:40.60960007px;font-family:'Franklin Gothic Heavy';-inkscape-font-specification:FranklinGothic-Heavy;writing-mode:lr-tb;fill:#373535;fill-opacity:1;fill-rule:nonzero;stroke:none" transform="matrix(.77044 0 0 1.33333 337.943 344.33)"><tspan y="0" x="0 21.673344 48.069584 73.572411">LUCK</tspan></text></svg>